<svg width="17" height="16" viewBox="0 0 17 16" fill="none" xmlns="http://www.w3.org/2000/svg">
<path d="M2.77344 11C2.77344 12.1046 3.66887 13 4.77344 13H13.7734C14.878 13 15.7734 12.1046 15.7734 11V5C15.7734 3.89543 14.878 3 13.7734 3H4.77344C3.66887 3 2.77344 3.89543 2.77344 5V11ZM4.17054 11.6568V6.6266L8.12432 9.1182C8.46576 9.33344 8.86515 9.4481 9.27344 9.4481C9.68172 9.4481 10.0811 9.33344 10.4226 9.1182L14.3763 6.6266V11.6568H4.17054ZM14.3763 4.34318V5.01477L9.27693 8.23841L4.17054 5.01477V4.34318H14.3763Z" fill="white"/>
</svg>
