<svg width="55" height="34" viewBox="0 0 55 34" fill="none" xmlns="http://www.w3.org/2000/svg">
<g clip-path="url(#clip0_7_413)">
<path d="M47.6123 16.1146C46.9512 16.138 46.366 15.6137 46.3371 14.9724C46.3096 14.3549 46.8791 13.752 47.5156 13.7245C48.1683 13.6961 48.7429 14.2221 48.7752 14.8776C48.8074 15.5352 48.2853 16.0908 47.6123 16.1146Z" fill="#CE091E"/>
<path d="M47.6123 16.1146C46.9512 16.138 46.366 15.6137 46.3371 14.9724C46.3096 14.3549 46.8791 13.752 47.5156 13.7245C48.1683 13.6961 48.7429 14.2221 48.7752 14.8776C48.8074 15.5352 48.2853 16.0908 47.6123 16.1146Z" fill="#CE091E"/>
<path fill-rule="evenodd" clip-rule="evenodd" d="M45.0624 10.8241C44.9139 10.744 44.7676 10.6655 44.6217 10.5858C38.5596 7.27669 32.4957 3.97013 26.4399 0.649372C26.0735 0.448557 25.8059 0.449809 25.4416 0.655634C17.3828 5.21134 9.31605 9.75494 1.25137 14.301C1.11228 14.3795 0.977843 14.466 0.773438 14.59C3.95529 16.0119 7.06886 17.4035 10.2694 18.8338C10.2694 18.514 10.2957 18.2848 10.2639 18.0639C10.1977 17.6047 10.3966 17.373 10.8147 17.1651C13.2438 15.9581 15.7688 14.9974 18.3786 14.2551C22.0702 13.2051 25.8237 12.748 29.6578 13.249C34.147 13.836 38.3836 15.2346 42.4606 17.1434C42.7516 17.2795 42.844 17.4423 42.8334 17.7454C42.8118 18.3783 42.827 19.0125 42.827 19.7385C44.6256 18.792 46.3227 17.899 48.0635 16.983V28.2128H49.3646L49.3643 27.9945C49.3585 24.2174 49.3524 20.3208 49.3578 16.5484C49.3578 16.4294 49.4511 16.2545 49.5529 16.2006C50.4477 15.7247 51.354 15.2705 52.2573 14.8096V14.7106C51.5367 14.3324 50.8396 13.8977 50.0881 13.593L48.1687 12.5751L46.4071 11.6487L45.0624 10.8241ZM46.3371 14.9724C46.366 15.6137 46.9512 16.138 47.6123 16.1146C48.2853 16.0908 48.8074 15.5352 48.7752 14.8776C48.7429 14.2221 48.1683 13.6961 47.5156 13.7245C46.8791 13.752 46.3096 14.3549 46.3371 14.9724Z" fill="#CE091E"/>
<path d="M11.9368 26.1107C11.9368 23.5114 11.9322 20.9722 11.9496 18.433C11.9504 18.3019 12.1086 18.1182 12.2418 18.0502C15.2591 16.5109 18.4295 15.3982 21.758 14.7094C26.3508 13.7592 30.8282 14.3132 35.2166 15.7477C37.1007 16.3635 38.9209 17.1705 40.7694 17.8911C41.0141 17.9863 41.1753 18.1007 41.1732 18.4238C41.1558 20.8983 41.1634 23.3728 41.1617 25.8473C41.1617 25.9124 41.1486 25.9771 41.1371 26.084C41.0006 26.0494 40.8733 26.0298 40.7563 25.9851C37.4536 24.7234 34.0537 23.8104 30.5547 23.2689C27.1197 22.7374 23.713 22.947 20.323 23.6663C17.6025 24.2433 14.938 24.9939 12.3435 25.9859C12.2371 26.0268 12.1251 26.0536 11.9368 26.1107Z" fill="#CE091E"/>
<path d="M46.7695 25.417C47.2932 25.5982 49.2482 26.2754 48.6045 28.0773C47.9607 29.8792 46.493 29.3711 45.482 29.0213C44.471 28.6714 42.2094 26.9818 42.5652 25.9865C42.9206 24.9912 45.7585 25.0672 46.7695 25.417Z" fill="#CE091E"/>
<path d="M45.6171 29.0182C45.9428 28.5757 47.1586 26.9232 48.7298 28.0442C50.301 29.1648 49.3884 30.4051 48.7599 31.2598C48.1315 32.1139 45.8423 33.7672 44.9742 33.1485C44.1065 32.5298 44.9882 29.8728 45.6171 29.0186V29.0182Z" fill="#CE091E"/>
<path d="M48.4755 31.2489C48.1816 30.785 47.0854 29.0541 48.7317 28.0434C50.3784 27.0326 51.2015 28.3323 51.7685 29.2278C52.3355 30.1229 53.0284 32.8333 52.1192 33.3915C51.21 33.9497 49.0425 32.1444 48.4755 31.2489Z" fill="#CE091E"/>
<path d="M51.8551 29.0007C51.3314 29.1815 49.3755 29.8566 48.7335 28.0539C48.0914 26.2511 49.56 25.7443 50.571 25.3957C51.5824 25.0466 54.4204 24.9736 54.7749 25.9693C55.1294 26.965 52.8661 28.6521 51.8547 29.0012L51.8551 29.0007Z" fill="#CE091E"/>
<path d="M50.6712 25.4618C50.6712 26.0083 50.6712 28.0486 48.7306 28.0486C46.79 28.0486 46.79 26.5168 46.79 25.4618C46.79 24.4068 47.659 21.7461 48.7306 21.7461C49.8023 21.7461 50.6712 24.4068 50.6712 25.4618Z" fill="#CE091E"/>
</g>
<defs>
<clipPath id="clip0_7_413">
<rect width="54" height="33" fill="white" transform="translate(0.773438 0.5)"/>
</clipPath>
</defs>
</svg>
