<svg width="95" height="34" viewBox="0 0 95 34" fill="none" xmlns="http://www.w3.org/2000/svg">
<rect x="1.27344" y="0.5" width="93" height="33" rx="16.5" stroke="#121212" stroke-opacity="0.5"/>
<path d="M28.5973 16.9091C28.5973 17.983 28.4034 18.911 28.0156 19.6932C27.6278 20.4754 27.0959 21.0786 26.4197 21.5028C25.7436 21.9271 24.9714 22.1392 24.103 22.1392C23.2346 22.1392 22.4624 21.9271 21.7862 21.5028C21.1101 21.0786 20.5781 20.4754 20.1903 19.6932C19.8026 18.911 19.6087 17.983 19.6087 16.9091C19.6087 15.8352 19.8026 14.9072 20.1903 14.125C20.5781 13.3428 21.1101 12.7396 21.7862 12.3153C22.4624 11.8911 23.2346 11.679 24.103 11.679C24.9714 11.679 25.7436 11.8911 26.4197 12.3153C27.0959 12.7396 27.6278 13.3428 28.0156 14.125C28.4034 14.9072 28.5973 15.8352 28.5973 16.9091ZM27.4041 16.9091C27.4041 16.0275 27.2566 15.2834 26.9616 14.6768C26.67 14.0703 26.2739 13.6113 25.7734 13.2997C25.2763 12.9882 24.7195 12.8324 24.103 12.8324C23.4865 12.8324 22.928 12.9882 22.4276 13.2997C21.9304 13.6113 21.5343 14.0703 21.2393 14.6768C20.9477 15.2834 20.8018 16.0275 20.8018 16.9091C20.8018 17.7907 20.9477 18.5348 21.2393 19.1413C21.5343 19.7479 21.9304 20.2069 22.4276 20.5185C22.928 20.83 23.4865 20.9858 24.103 20.9858C24.7195 20.9858 25.2763 20.83 25.7734 20.5185C26.2739 20.2069 26.67 19.7479 26.9616 19.1413C27.2566 18.5348 27.4041 17.7907 27.4041 16.9091ZM30.6705 22V11.8182H36.7756V12.9119H31.9034V16.3523H36.3182V17.446H31.9034V22H30.6705ZM38.8873 22V11.8182H44.9924V12.9119H40.1202V16.3523H44.535V17.446H40.1202V22H38.8873ZM47.104 22V11.8182H48.337V20.9062H53.07V22H47.104ZM56.212 11.8182V22H54.979V11.8182H56.212ZM66.758 11.8182V22H65.5648L60.0165 14.0057H59.9171V22H58.6841V11.8182H59.8773L65.4455 19.8324H65.5449V11.8182H66.758ZM69.2251 22V11.8182H75.37V12.9119H70.4581V16.3523H75.0518V17.446H70.4581V20.9062H75.4496V22H69.2251Z" fill="#121212" fill-opacity="0.5"/>
</svg>
