<svg width="50" height="57" viewBox="0 0 50 57" fill="none" xmlns="http://www.w3.org/2000/svg">
<path d="M42.9995 11.3385C42.9668 11.0447 42.7054 10.9141 42.5094 10.9141C42.3133 10.9141 38.033 10.5876 38.033 10.5876C38.033 10.5876 35.0596 7.61683 34.7002 7.32302C34.3734 6.99656 33.7526 7.0945 33.4912 7.15979C33.4586 7.15979 32.8378 7.35567 31.8248 7.68213C30.8119 4.77663 29.0802 2.1323 25.9761 2.1323H25.6821C24.8325 1.02234 23.7216 0.5 22.8067 0.5C15.6184 0.5 12.1549 9.47766 11.0766 14.0481C8.26662 14.9295 6.27348 15.5172 6.04476 15.6151C4.47639 16.1048 4.44372 16.1374 4.24767 17.6065C4.0843 18.7165 0 50.2852 0 50.2852L31.7922 56.2268L49.0442 52.5051C49.0769 52.4398 43.0322 11.6323 42.9995 11.3385ZM30.0604 8.13917C29.2762 8.36769 28.3287 8.66151 27.3811 8.98797V8.40034C27.3811 6.63745 27.1524 5.20103 26.7276 4.05842C28.3614 4.25429 29.3743 6.04982 30.0604 8.13917ZM24.7345 4.41752C25.1593 5.52749 25.4533 7.0945 25.4533 9.24913V9.57559C23.6889 10.1306 21.8265 10.6856 19.8987 11.3058C20.977 7.19243 23.0354 5.16838 24.7345 4.41752ZM22.6433 2.39347C22.9701 2.39347 23.2968 2.52405 23.5582 2.71993C21.2383 3.79725 18.7878 6.50687 17.7749 11.9914C16.2392 12.4811 14.7688 12.9055 13.3638 13.3625C14.5401 9.18384 17.4808 2.39347 22.6433 2.39347Z" fill="white"/>
</svg>
