<svg width="61" height="62" viewBox="0 0 61 62" fill="none" xmlns="http://www.w3.org/2000/svg">
<path d="M30.6061 49.7632C20.404 49.7632 15.7576 44.5625 15.7576 40.6875C15.7576 38.75 17.2727 37.3224 19.2929 37.3224C23.6364 37.3224 22.5252 43.9507 30.7071 43.9507C34.8485 43.9507 37.2727 41.4013 37.2727 39.0559C37.2727 37.6283 36.4646 35.9967 33.7374 35.3849L24.6465 33.0395C17.3737 31.204 16.0606 27.023 16.0606 23.25C16.0606 15.398 23.2323 12.5428 30 12.5428C36.2626 12.5428 43.7374 16.0099 43.7374 20.8026C43.7374 22.8421 42.0202 23.9638 40.101 23.9638C36.3636 23.9638 36.9697 18.6612 29.4949 18.6612C25.7576 18.6612 23.8384 20.3947 23.8384 22.8421C23.8384 25.2895 26.7677 26.1053 29.2929 26.7171L35.9596 28.2467C43.3333 29.8783 45.2525 34.2632 45.2525 38.4441C45.2525 44.7664 40.303 49.7632 30.6061 49.7632ZM58.7879 36.0987C59.0909 34.4671 59.1919 32.7336 59.1919 31C59.1919 14.8882 46.3636 1.83553 30.505 1.83553C28.7879 1.83553 27.1717 1.9375 25.5555 2.24342C23.0303 0.81579 20.202 0 17.0707 0C7.67676 0 0 7.75 0 17.3355C0 20.4967 0.80808 23.352 2.22222 25.9013C1.91919 27.5329 1.81818 29.2664 1.81818 31C1.81818 47.1118 14.6465 60.1645 30.505 60.1645C32.2222 60.1645 33.8384 60.0625 35.4545 59.7566C37.9798 61.1842 40.8081 62 43.9394 62C53.3333 62 61.0101 54.25 61.0101 44.6645C61.0101 41.6053 60.202 38.648 58.7879 36.0987Z" fill="black"/>
</svg>
