<svg width="17" height="16" viewBox="0 0 17 16" fill="none" xmlns="http://www.w3.org/2000/svg">
<path d="M13.976 11.2321L11.2642 10.017L11.2567 10.0135C11.1159 9.95329 10.9624 9.92912 10.8099 9.94319C10.6574 9.95726 10.5109 10.0091 10.3835 10.0941C10.3685 10.104 10.3541 10.1147 10.3403 10.1263L8.9392 11.3208C8.05156 10.8896 7.13514 9.98011 6.70398 9.10399L7.90017 7.68158C7.91168 7.66719 7.92262 7.6528 7.93298 7.63726C8.01612 7.51021 8.06656 7.36459 8.07981 7.21334C8.09307 7.06209 8.06873 6.90991 8.00896 6.77034V6.76344L6.79033 4.04699C6.71132 3.86466 6.57546 3.71278 6.40303 3.61401C6.23061 3.51525 6.03086 3.47489 5.83362 3.49898C5.05361 3.60162 4.33763 3.98469 3.81941 4.57663C3.30119 5.16858 3.01617 5.92892 3.01758 6.71566C3.01758 11.2862 6.73622 15.0049 11.3068 15.0049C12.0935 15.0063 12.8539 14.7213 13.4458 14.203C14.0378 13.6848 14.4208 12.9689 14.5235 12.1888C14.5476 11.9917 14.5073 11.792 14.4087 11.6196C14.31 11.4471 14.1583 11.3112 13.976 11.2321ZM11.3068 14.0839C9.35329 14.0817 7.4804 13.3047 6.09906 11.9234C4.71772 10.5421 3.94074 8.66917 3.93861 6.71566C3.93644 6.15354 4.13896 5.60985 4.50834 5.18613C4.87772 4.7624 5.38871 4.48762 5.94587 4.4131C5.94564 4.41539 5.94564 4.41771 5.94587 4.42L7.15471 7.12551L5.96486 8.54965C5.95276 8.56352 5.94179 8.57835 5.93205 8.59397C5.84543 8.7269 5.79461 8.87995 5.78452 9.03829C5.77444 9.19663 5.80543 9.35489 5.87449 9.49773C6.39602 10.5644 7.47074 11.6311 8.54891 12.152C8.6928 12.2204 8.85198 12.2503 9.01089 12.2388C9.1698 12.2273 9.32301 12.1748 9.45555 12.0864C9.47036 12.0765 9.48458 12.0657 9.49814 12.0541L10.8975 10.8603L13.603 12.072H13.6094C13.5358 12.6299 13.2614 13.142 12.8376 13.5122C12.4138 13.8825 11.8696 14.0857 11.3068 14.0839Z" fill="white"/>
</svg>
