<svg width="17" height="16" viewBox="0 0 17 16" fill="none" xmlns="http://www.w3.org/2000/svg">
<path d="M8.77344 8.65C8.29984 8.65 7.84563 8.46563 7.51075 8.13744C7.17586 7.80925 6.98772 7.36413 6.98772 6.9C6.98772 6.43587 7.17586 5.99075 7.51075 5.66256C7.84563 5.33437 8.29984 5.15 8.77344 5.15C9.24704 5.15 9.70124 5.33437 10.0361 5.66256C10.371 5.99075 10.5592 6.43587 10.5592 6.9C10.5592 7.12981 10.513 7.35738 10.4232 7.5697C10.3335 7.78202 10.2019 7.97493 10.0361 8.13744C9.87031 8.29994 9.67345 8.42884 9.4568 8.51679C9.24015 8.60474 9.00794 8.65 8.77344 8.65ZM8.77344 2C7.44736 2 6.17559 2.51625 5.2379 3.43518C4.30022 4.3541 3.77344 5.60044 3.77344 6.9C3.77344 9.29823 5.90273 12.4417 7.38226 14.3365C8.10157 15.2577 9.4453 15.2577 10.1646 14.3365C11.6441 12.4417 13.7734 9.29823 13.7734 6.9C13.7734 5.60044 13.2467 4.3541 12.309 3.43518C11.3713 2.51625 10.0995 2 8.77344 2Z" stroke="white" stroke-linejoin="round"/>
</svg>
